<svg width="240" height="73" viewBox="0 0 240 73" fill="none" xmlns="http://www.w3.org/2000/svg">
<rect width="240" height="73" rx="36.5" fill="#68F408"/>
<path d="M85.2024 42.69V48H69.3024V27.12H70.4124V42.69H85.2024ZM89.5895 35.25C89.5895 33.69 89.9795 32.24 90.7595 30.9C91.5395 29.56 92.5895 28.5 93.9095 27.72C95.2495 26.94 96.7095 26.55 98.2895 26.55C99.8695 26.55 101.319 26.94 102.639 27.72C103.979 28.5 105.039 29.56 105.819 30.9C106.599 32.24 106.989 33.69 106.989 35.25V39.87C106.989 41.43 106.599 42.88 105.819 44.22C105.039 45.56 103.979 46.62 102.639 47.4C101.319 48.18 99.8695 48.57 98.2895 48.57C96.7095 48.57 95.2495 48.18 93.9095 47.4C92.5895 46.62 91.5395 45.56 90.7595 44.22C89.9795 42.88 89.5895 41.43 89.5895 39.87V35.25ZM95.0495 39.87C95.0495 40.83 95.3495 41.65 95.9495 42.33C96.5495 43.01 97.3295 43.35 98.2895 43.35C99.2295 43.35 99.9995 43.01 100.599 42.33C101.199 41.65 101.499 40.83 101.499 39.87V35.22C101.499 34.24 101.199 33.42 100.599 32.76C99.9995 32.1 99.2295 31.77 98.2895 31.77C97.3295 31.77 96.5495 32.1 95.9495 32.76C95.3495 33.42 95.0495 34.24 95.0495 35.22V39.87ZM120.346 27.78C119.006 27.78 117.756 28.12 116.596 28.8C115.456 29.46 114.546 30.37 113.866 31.53C113.186 32.67 112.846 33.92 112.846 35.28V39.24C112.846 40.66 113.046 41.83 113.446 42.75C114.006 44.05 114.856 45.11 115.996 45.93C117.136 46.75 118.416 47.21 119.836 47.31V37.56H128.986V39.54C128.986 40.82 128.796 41.96 128.416 42.96C127.796 44.62 126.756 45.95 125.296 46.95C123.836 47.95 122.186 48.45 120.346 48.45C118.606 48.45 117.016 47.98 115.576 47.04C114.156 46.08 113.116 44.81 112.456 43.23C111.976 42.11 111.736 40.78 111.736 39.24V35.28C111.736 33.72 112.116 32.28 112.876 30.96C113.656 29.64 114.706 28.6 116.026 27.84C117.346 27.06 118.786 26.67 120.346 26.67C121.646 26.67 122.836 26.89 123.916 27.33C124.996 27.75 125.916 28.37 126.676 29.19C127.296 29.87 127.796 30.63 128.176 31.47C128.576 32.31 128.776 33.16 128.776 34.02H127.696C127.676 33.28 127.486 32.55 127.126 31.83C126.786 31.11 126.346 30.46 125.806 29.88C124.466 28.48 122.646 27.78 120.346 27.78ZM127.876 38.64H120.916V47.31C122.356 47.21 123.646 46.76 124.786 45.96C125.946 45.14 126.796 44.06 127.336 42.72C127.696 41.78 127.876 40.72 127.876 39.54V38.64ZM135.954 32.4V27.12H149.454V32.4H143.244V42.72H149.454V48H135.954V42.72H142.164V32.4H135.954ZM156.781 47.97V27.09H157.951L172.531 41.28V27.09H173.641V47.97H156.781Z" fill="#212121"/>
</svg>
