<svg width="85" height="84" viewBox="0 0 85 84" fill="none" xmlns="http://www.w3.org/2000/svg">
<path d="M22.4033 78.3736H0V78.0054H22.4033V78.3736Z" fill="#A7A5A6"/>
<path d="M22.4033 79.8657H0V79.4975H22.4033V79.8657Z" fill="#A7A5A6"/>
<path d="M22.4033 81.3574H0V80.9892H22.4033V81.3574Z" fill="#A7A5A6"/>
<path d="M85 78.3736H62.5967V78.0054H85V78.3736Z" fill="#A7A5A6"/>
<path d="M85 79.8657H62.5967V79.4975H85V79.8657Z" fill="#A7A5A6"/>
<path d="M85 81.3574H62.5967V80.9892H85V81.3574Z" fill="#A7A5A6"/>
<path d="M35.5632 47.0668C34.3569 46.369 33.1688 45.5035 32.0661 44.4304C31.3745 43.7565 30.4253 42.8188 29.6102 41.3028C27.0199 36.4876 28.7177 31.3152 29.027 30.3727C29.4784 28.9974 30.0333 27.9712 30.5647 27.0738C35.5384 18.6845 41.1497 17.1575 43.1489 11.5705C43.2476 11.2961 43.3414 10.9983 43.4264 10.6779C43.414 11.0957 43.3972 11.5183 43.3697 11.9488C42.7047 22.3626 37.6664 29.4903 35.3211 32.4002C37.6615 32.467 40.0014 32.5352 42.3418 32.6029C41.482 35.2503 40.3621 38.131 38.889 41.1307C37.8354 43.2764 36.7137 45.2517 35.5632 47.0668ZM49.9762 26.4645C48.0027 26.8123 46.0296 27.161 44.056 27.5102C44.8875 25.8393 45.6694 23.8025 46.1517 21.4077C47.2845 15.7786 46.2708 10.6279 44.9521 6.82511C42.4644 6.56935 39.8939 6.70166 37.3186 7.27159C24.3848 10.1328 16.2198 22.9383 19.0814 35.8712C20.9979 44.5348 27.3765 51.0586 35.2663 53.5623C37.2606 51.1856 39.2895 48.4771 41.2404 45.4163C45.776 38.2978 48.4085 31.594 49.9762 26.4645Z" fill="#F8A41E"/>
<path d="M65.9181 25.5083C65.1929 22.2302 63.8282 19.2575 61.9839 16.6941C58.5311 11.8921 53.3985 8.5234 47.6345 7.25565C49.3691 8.75881 51.7409 11.1545 53.7485 14.6064C55.1756 17.0623 60.9608 27.0137 56.4602 37.1013C52.6529 45.638 44.0233 48.5709 41.7418 49.2324C41.5931 49.2758 41.471 49.3094 41.3794 49.3346C40.3643 50.5656 39.2722 51.7914 38.0956 53.0012C37.7464 53.3605 37.3969 53.7105 37.0473 54.0525C40.4373 54.8468 44.0538 54.9114 47.681 54.1083C60.6143 51.2466 68.7793 38.4425 65.9181 25.5083Z" fill="#6CC62E"/>
<path d="M42.4998 58.8014C26.9743 58.8014 14.3887 46.2159 14.3887 30.6899C14.3887 15.1649 26.9743 2.57932 42.4998 2.57932C58.0248 2.57932 70.6113 15.1649 70.6113 30.6899C70.6113 46.2159 58.0248 58.8014 42.4998 58.8014ZM42.4998 0C25.5499 0 11.8094 13.7409 11.8094 30.6899C11.8094 47.6398 25.5499 61.3808 42.4998 61.3808C59.4497 61.3808 73.1897 47.6398 73.1897 30.6899C73.1897 13.7409 59.4497 0 42.4998 0Z" fill="#368536"/>
<path d="M5.56781 66.952H12.1588V69.24H7.93381V70.384H11.4438V72.555H7.93381V73.712H12.1588V76H5.56781V66.952ZM14.9179 75.987V66.939H15.4249L21.7429 73.088V66.939H22.2239V75.987H14.9179ZM24.8139 66.952H31.4049V69.24H27.1799V70.384H30.6899V72.555H27.1799V73.712H31.4049V76H24.8139V66.952ZM41.431 76H34.476V66.952H37.999C38.753 66.952 39.3683 67.0863 39.845 67.355C40.313 67.615 40.677 67.9703 40.937 68.421C41.197 68.8717 41.327 69.37 41.327 69.916C41.327 70.592 41.119 71.1987 40.703 71.736C40.287 72.2647 39.7626 72.6157 39.13 72.789L41.431 76ZM35.295 67.433L38.831 72.373C39.4116 72.2517 39.8926 71.9613 40.274 71.502C40.6553 71.0427 40.846 70.514 40.846 69.916C40.846 69.4393 40.729 69.006 40.495 68.616C40.261 68.226 39.9316 67.927 39.507 67.719C39.1256 67.5283 38.6273 67.433 38.012 67.433H35.295ZM34.957 67.745V72.412H38.298L34.957 67.745ZM34.957 75.519H40.521L38.623 72.88L38.22 72.893H34.957V75.519ZM47.245 67.238C46.6643 67.238 46.1227 67.3853 45.62 67.68C45.126 67.966 44.7317 68.3603 44.437 68.863C44.1423 69.357 43.995 69.8987 43.995 70.488V72.204C43.995 72.8193 44.0817 73.3263 44.255 73.725C44.4977 74.2883 44.866 74.7477 45.36 75.103C45.854 75.4583 46.4087 75.6577 47.024 75.701V71.476H50.989V72.334C50.989 72.8887 50.9067 73.3827 50.742 73.816C50.4733 74.5353 50.0227 75.1117 49.39 75.545C48.7573 75.9783 48.0423 76.195 47.245 76.195C46.491 76.195 45.802 75.9913 45.178 75.584C44.5627 75.168 44.112 74.6177 43.826 73.933C43.618 73.4477 43.514 72.8713 43.514 72.204V70.488C43.514 69.812 43.6787 69.188 44.008 68.616C44.346 68.044 44.801 67.5933 45.373 67.264C45.945 66.926 46.569 66.757 47.245 66.757C47.8083 66.757 48.324 66.8523 48.792 67.043C49.26 67.225 49.6587 67.4937 49.988 67.849C50.2567 68.1437 50.4733 68.473 50.638 68.837C50.8113 69.201 50.898 69.5693 50.898 69.942H50.43C50.4213 69.6213 50.339 69.305 50.183 68.993C50.0357 68.681 49.845 68.3993 49.611 68.148C49.0303 67.5413 48.2417 67.238 47.245 67.238ZM50.508 71.944H47.492V75.701C48.116 75.6577 48.675 75.4627 49.169 75.116C49.6717 74.7607 50.04 74.2927 50.274 73.712C50.43 73.3047 50.508 72.8453 50.508 72.334V71.944ZM53.072 66.952H60.794L57.18 72.295V76H56.699V72.295L53.072 66.952ZM72.3441 76L75.8931 71.476L72.3441 66.952H80.0271L76.4781 71.476L80.0271 76H72.3441ZM76.1791 71.086L79.0521 67.433H73.3191L76.1791 71.086ZM79.0521 75.519L76.1791 71.866L73.3191 75.519H79.0521Z" fill="white"/>
<path d="M28.4315 81.036C28.1855 81.036 27.9805 80.946 27.8165 80.766C27.6545 80.586 27.5735 80.336 27.5735 80.016C27.5735 79.7 27.6565 79.451 27.8225 79.269C27.9885 79.087 28.1965 78.996 28.4465 78.996C28.5665 78.996 28.6715 79.021 28.7615 79.071C28.8535 79.119 28.9285 79.175 28.9865 79.239L28.8515 79.401C28.7995 79.345 28.7405 79.3 28.6745 79.266C28.6085 79.232 28.5335 79.215 28.4495 79.215C28.2635 79.215 28.1135 79.287 27.9995 79.431C27.8875 79.573 27.8315 79.766 27.8315 80.01C27.8315 80.258 27.8865 80.455 27.9965 80.601C28.1065 80.745 28.2545 80.817 28.4405 80.817C28.5345 80.817 28.6185 80.798 28.6925 80.76C28.7665 80.72 28.8345 80.665 28.8965 80.595L29.0345 80.751C28.9565 80.841 28.8685 80.911 28.7705 80.961C28.6725 81.011 28.5595 81.036 28.4315 81.036ZM29.6383 81.036C29.4643 81.036 29.3773 80.926 29.3773 80.706V78.864H29.6233V80.724C29.6233 80.796 29.6463 80.832 29.6923 80.832C29.7103 80.832 29.7283 80.83 29.7463 80.826L29.7793 81.012C29.7433 81.028 29.6963 81.036 29.6383 81.036ZM30.733 81.036C30.539 81.036 30.374 80.969 30.238 80.835C30.102 80.699 30.034 80.512 30.034 80.274C30.034 80.114 30.065 79.977 30.127 79.863C30.191 79.749 30.272 79.661 30.37 79.599C30.47 79.537 30.576 79.506 30.688 79.506C30.874 79.506 31.017 79.568 31.117 79.692C31.219 79.816 31.27 79.982 31.27 80.19C31.27 80.248 31.267 80.295 31.261 80.331H30.277C30.287 80.485 30.335 80.608 30.421 80.7C30.509 80.792 30.623 80.838 30.763 80.838C30.833 80.838 30.897 80.828 30.955 80.808C31.015 80.786 31.072 80.758 31.126 80.724L31.213 80.886C31.151 80.926 31.08 80.961 31 80.991C30.92 81.021 30.831 81.036 30.733 81.036ZM30.274 80.154H31.054C31.054 79.852 30.934 79.701 30.694 79.701C30.592 79.701 30.5 79.741 30.418 79.821C30.338 79.899 30.29 80.01 30.274 80.154ZM31.9973 80.838C32.0673 80.838 32.1333 80.821 32.1953 80.787C32.2573 80.753 32.3233 80.705 32.3933 80.643V80.238C32.1493 80.268 31.9793 80.314 31.8833 80.376C31.7873 80.436 31.7393 80.512 31.7393 80.604C31.7393 80.686 31.7643 80.746 31.8143 80.784C31.8643 80.82 31.9253 80.838 31.9973 80.838ZM31.9253 81.036C31.8033 81.036 31.7013 81 31.6193 80.928C31.5393 80.854 31.4993 80.752 31.4993 80.622C31.4993 80.462 31.5703 80.34 31.7123 80.256C31.8563 80.17 32.0833 80.11 32.3933 80.076C32.3933 79.984 32.3733 79.9 32.3333 79.824C32.2933 79.748 32.2133 79.71 32.0933 79.71C32.0093 79.71 31.9303 79.726 31.8563 79.758C31.7823 79.79 31.7163 79.826 31.6583 79.866L31.5623 79.695C31.6303 79.651 31.7133 79.609 31.8113 79.569C31.9113 79.527 32.0193 79.506 32.1353 79.506C32.3133 79.506 32.4423 79.561 32.5223 79.671C32.6023 79.779 32.6423 79.924 32.6423 80.106V81H32.4383L32.4173 80.826H32.4083C32.3383 80.882 32.2633 80.931 32.1833 80.973C32.1033 81.015 32.0173 81.036 31.9253 81.036ZM33.101 81V79.542H33.305L33.326 79.752H33.335C33.403 79.684 33.476 79.626 33.554 79.578C33.634 79.53 33.724 79.506 33.824 79.506C34.12 79.506 34.268 79.696 34.268 80.076V81H34.022V80.109C34.022 79.973 34 79.874 33.956 79.812C33.912 79.75 33.842 79.719 33.746 79.719C33.672 79.719 33.605 79.738 33.545 79.776C33.487 79.814 33.421 79.87 33.347 79.944V81H33.101ZM35.9332 81.036C35.7392 81.036 35.5742 80.969 35.4382 80.835C35.3022 80.699 35.2342 80.512 35.2342 80.274C35.2342 80.114 35.2652 79.977 35.3272 79.863C35.3912 79.749 35.4722 79.661 35.5702 79.599C35.6702 79.537 35.7762 79.506 35.8882 79.506C36.0742 79.506 36.2172 79.568 36.3172 79.692C36.4192 79.816 36.4702 79.982 36.4702 80.19C36.4702 80.248 36.4672 80.295 36.4612 80.331H35.4772C35.4872 80.485 35.5352 80.608 35.6212 80.7C35.7092 80.792 35.8232 80.838 35.9632 80.838C36.0332 80.838 36.0972 80.828 36.1552 80.808C36.2152 80.786 36.2722 80.758 36.3262 80.724L36.4132 80.886C36.3512 80.926 36.2802 80.961 36.2002 80.991C36.1202 81.021 36.0312 81.036 35.9332 81.036ZM35.4742 80.154H36.2542C36.2542 79.852 36.1342 79.701 35.8942 79.701C35.7922 79.701 35.7002 79.741 35.6182 79.821C35.5382 79.899 35.4902 80.01 35.4742 80.154ZM36.8305 81V79.542H37.0345L37.0555 79.752H37.0645C37.1325 79.684 37.2055 79.626 37.2835 79.578C37.3635 79.53 37.4535 79.506 37.5535 79.506C37.8495 79.506 37.9975 79.696 37.9975 80.076V81H37.7515V80.109C37.7515 79.973 37.7295 79.874 37.6855 79.812C37.6415 79.75 37.5715 79.719 37.4755 79.719C37.4015 79.719 37.3345 79.738 37.2745 79.776C37.2165 79.814 37.1505 79.87 37.0765 79.944V81H36.8305ZM39.0621 81.036C38.8681 81.036 38.7031 80.969 38.5671 80.835C38.4311 80.699 38.3631 80.512 38.3631 80.274C38.3631 80.114 38.3941 79.977 38.4561 79.863C38.5201 79.749 38.6011 79.661 38.6991 79.599C38.7991 79.537 38.9051 79.506 39.0171 79.506C39.2031 79.506 39.3461 79.568 39.4461 79.692C39.5481 79.816 39.5991 79.982 39.5991 80.19C39.5991 80.248 39.5961 80.295 39.5901 80.331H38.6061C38.6161 80.485 38.6641 80.608 38.7501 80.7C38.8381 80.792 38.9521 80.838 39.0921 80.838C39.1621 80.838 39.2261 80.828 39.2841 80.808C39.3441 80.786 39.4011 80.758 39.4551 80.724L39.5421 80.886C39.4801 80.926 39.4091 80.961 39.3291 80.991C39.2491 81.021 39.1601 81.036 39.0621 81.036ZM38.6031 80.154H39.3831C39.3831 79.852 39.2631 79.701 39.0231 79.701C38.9211 79.701 38.8291 79.741 38.7471 79.821C38.6671 79.899 38.6191 80.01 38.6031 80.154ZM39.9594 81V79.542H40.1634L40.1844 79.806H40.1934C40.2434 79.714 40.3044 79.641 40.3764 79.587C40.4484 79.533 40.5254 79.506 40.6074 79.506C40.6654 79.506 40.7174 79.516 40.7634 79.536L40.7154 79.752C40.6914 79.744 40.6694 79.738 40.6494 79.734C40.6294 79.73 40.6044 79.728 40.5744 79.728C40.5124 79.728 40.4474 79.753 40.3794 79.803C40.3134 79.853 40.2554 79.94 40.2054 80.064V81H39.9594ZM41.4621 80.373C41.5461 80.373 41.6181 80.342 41.6781 80.28C41.7401 80.216 41.7711 80.131 41.7711 80.025C41.7711 79.919 41.7411 79.836 41.6811 79.776C41.6211 79.716 41.5481 79.686 41.4621 79.686C41.3761 79.686 41.3031 79.716 41.2431 79.776C41.1831 79.836 41.1531 79.919 41.1531 80.025C41.1531 80.131 41.1831 80.216 41.2431 80.28C41.3051 80.342 41.3781 80.373 41.4621 80.373ZM41.4621 81.672C41.2841 81.672 41.1391 81.638 41.0271 81.57C40.9151 81.502 40.8591 81.405 40.8591 81.279C40.8591 81.155 40.9301 81.045 41.0721 80.949V80.937C41.0361 80.915 41.0051 80.884 40.9791 80.844C40.9551 80.804 40.9431 80.756 40.9431 80.7C40.9431 80.638 40.9601 80.584 40.9941 80.538C41.0281 80.492 41.0641 80.456 41.1021 80.43V80.418C41.0541 80.378 41.0101 80.324 40.9701 80.256C40.9321 80.188 40.9131 80.111 40.9131 80.025C40.9131 79.867 40.9671 79.741 41.0751 79.647C41.1851 79.553 41.3141 79.506 41.4621 79.506C41.5381 79.506 41.6071 79.518 41.6691 79.542H42.1761V79.731H41.8761C41.9101 79.765 41.9381 79.808 41.9601 79.86C41.9841 79.912 41.9961 79.969 41.9961 80.031C41.9961 80.187 41.9441 80.311 41.8401 80.403C41.7361 80.493 41.6101 80.538 41.4621 80.538C41.3841 80.538 41.3111 80.521 41.2431 80.487C41.2171 80.509 41.1951 80.534 41.1771 80.562C41.1591 80.588 41.1501 80.621 41.1501 80.661C41.1501 80.707 41.1681 80.745 41.2041 80.775C41.2401 80.805 41.3081 80.82 41.4081 80.82H41.6901C42.0301 80.82 42.2001 80.936 42.2001 81.168C42.2001 81.304 42.1331 81.422 41.9991 81.522C41.8671 81.622 41.6881 81.672 41.4621 81.672ZM41.4981 81.501C41.6381 81.501 41.7501 81.47 41.8341 81.408C41.9181 81.348 41.9601 81.28 41.9601 81.204C41.9601 81.136 41.9341 81.089 41.8821 81.063C41.8321 81.037 41.7601 81.024 41.6661 81.024H41.4141C41.3861 81.024 41.3551 81.022 41.3211 81.018C41.2891 81.014 41.2571 81.008 41.2251 81C41.1251 81.072 41.0751 81.154 41.0751 81.246C41.0751 81.324 41.1121 81.386 41.1861 81.432C41.2621 81.478 41.3661 81.501 41.4981 81.501ZM42.5498 81.627C42.4898 81.627 42.4328 81.617 42.3788 81.597L42.4268 81.402C42.4408 81.406 42.4578 81.41 42.4778 81.414C42.4998 81.42 42.5198 81.423 42.5378 81.423C42.6198 81.423 42.6878 81.393 42.7418 81.333C42.7958 81.275 42.8378 81.201 42.8678 81.111L42.9008 81.003L42.3158 79.542H42.5708L42.8678 80.349C42.8898 80.411 42.9128 80.478 42.9368 80.55C42.9628 80.622 42.9868 80.692 43.0088 80.76H43.0208C43.0428 80.694 43.0638 80.625 43.0838 80.553C43.1038 80.481 43.1238 80.413 43.1438 80.349L43.4048 79.542H43.6448L43.0958 81.12C43.0438 81.264 42.9768 81.384 42.8948 81.48C42.8128 81.578 42.6978 81.627 42.5498 81.627ZM44.9078 81.036C44.8038 81.036 44.7038 81.017 44.6078 80.979C44.5138 80.941 44.4328 80.893 44.3648 80.835L44.4878 80.67C44.5498 80.722 44.6148 80.764 44.6828 80.796C44.7508 80.828 44.8288 80.844 44.9168 80.844C45.0128 80.844 45.0848 80.822 45.1328 80.778C45.1808 80.734 45.2048 80.68 45.2048 80.616C45.2048 80.54 45.1688 80.483 45.0968 80.445C45.0268 80.405 44.9518 80.37 44.8718 80.34C44.7678 80.302 44.6688 80.254 44.5748 80.196C44.4828 80.136 44.4368 80.044 44.4368 79.92C44.4368 79.804 44.4808 79.706 44.5688 79.626C44.6568 79.546 44.7798 79.506 44.9378 79.506C45.0298 79.506 45.1138 79.522 45.1898 79.554C45.2678 79.586 45.3348 79.625 45.3908 79.671L45.2738 79.827C45.2238 79.789 45.1718 79.758 45.1178 79.734C45.0638 79.71 45.0048 79.698 44.9408 79.698C44.8488 79.698 44.7808 79.719 44.7368 79.761C44.6948 79.803 44.6738 79.852 44.6738 79.908C44.6738 79.976 44.7068 80.027 44.7728 80.061C44.8408 80.095 44.9158 80.128 44.9978 80.16C45.1038 80.2 45.2038 80.249 45.2978 80.307C45.3938 80.365 45.4418 80.463 45.4418 80.601C45.4418 80.719 45.3958 80.821 45.3038 80.907C45.2118 80.993 45.0798 81.036 44.9078 81.036ZM46.3506 81.036C46.1726 81.036 46.0156 80.97 45.8796 80.838C45.7436 80.704 45.6756 80.516 45.6756 80.274C45.6756 80.03 45.7436 79.841 45.8796 79.707C46.0156 79.573 46.1726 79.506 46.3506 79.506C46.5286 79.506 46.6856 79.573 46.8216 79.707C46.9576 79.841 47.0256 80.03 47.0256 80.274C47.0256 80.516 46.9576 80.704 46.8216 80.838C46.6856 80.97 46.5286 81.036 46.3506 81.036ZM46.3506 80.832C46.4766 80.832 46.5776 80.781 46.6536 80.679C46.7316 80.575 46.7706 80.44 46.7706 80.274C46.7706 80.106 46.7316 79.97 46.6536 79.866C46.5776 79.762 46.4766 79.71 46.3506 79.71C46.2266 79.71 46.1256 79.762 46.0476 79.866C45.9696 79.97 45.9306 80.106 45.9306 80.274C45.9306 80.44 45.9696 80.575 46.0476 80.679C46.1256 80.781 46.2266 80.832 46.3506 80.832ZM47.6706 81.036C47.4966 81.036 47.4096 80.926 47.4096 80.706V78.864H47.6556V80.724C47.6556 80.796 47.6786 80.832 47.7246 80.832C47.7426 80.832 47.7606 80.83 47.7786 80.826L47.8116 81.012C47.7756 81.028 47.7286 81.036 47.6706 81.036ZM48.6002 81.036C48.3022 81.036 48.1532 80.846 48.1532 80.466V79.542H48.4022V80.433C48.4022 80.569 48.4232 80.668 48.4652 80.73C48.5092 80.792 48.5792 80.823 48.6752 80.823C48.7492 80.823 48.8162 80.804 48.8762 80.766C48.9362 80.726 49.0002 80.663 49.0682 80.577V79.542H49.3142V81H49.1102L49.0892 80.772H49.0802C49.0122 80.852 48.9402 80.916 48.8642 80.964C48.7882 81.012 48.7002 81.036 48.6002 81.036ZM50.2651 81.036C50.1091 81.036 50.0001 80.991 49.9381 80.901C49.8781 80.811 49.8481 80.694 49.8481 80.55V79.743H49.6321V79.557L49.8601 79.542L49.8901 79.134H50.0971V79.542H50.4901V79.743H50.0971V80.553C50.0971 80.643 50.1131 80.713 50.1451 80.763C50.1791 80.811 50.2381 80.835 50.3221 80.835C50.3481 80.835 50.3761 80.831 50.4061 80.823C50.4361 80.813 50.4631 80.804 50.4871 80.796L50.5351 80.982C50.4951 80.996 50.4511 81.008 50.4031 81.018C50.3571 81.03 50.3111 81.036 50.2651 81.036ZM50.9457 79.242C50.8977 79.242 50.8567 79.227 50.8227 79.197C50.7907 79.167 50.7747 79.129 50.7747 79.083C50.7747 79.035 50.7907 78.997 50.8227 78.969C50.8567 78.939 50.8977 78.924 50.9457 78.924C50.9937 78.924 51.0337 78.939 51.0657 78.969C51.0997 78.997 51.1167 79.035 51.1167 79.083C51.1167 79.129 51.0997 79.167 51.0657 79.197C51.0337 79.227 50.9937 79.242 50.9457 79.242ZM50.8197 81V79.542H51.0657V81H50.8197ZM52.125 81.036C51.947 81.036 51.79 80.97 51.654 80.838C51.518 80.704 51.45 80.516 51.45 80.274C51.45 80.03 51.518 79.841 51.654 79.707C51.79 79.573 51.947 79.506 52.125 79.506C52.303 79.506 52.46 79.573 52.596 79.707C52.732 79.841 52.8 80.03 52.8 80.274C52.8 80.516 52.732 80.704 52.596 80.838C52.46 80.97 52.303 81.036 52.125 81.036ZM52.125 80.832C52.251 80.832 52.352 80.781 52.428 80.679C52.506 80.575 52.545 80.44 52.545 80.274C52.545 80.106 52.506 79.97 52.428 79.866C52.352 79.762 52.251 79.71 52.125 79.71C52.001 79.71 51.9 79.762 51.822 79.866C51.744 79.97 51.705 80.106 51.705 80.274C51.705 80.44 51.744 80.575 51.822 80.679C51.9 80.781 52.001 80.832 52.125 80.832ZM53.184 81V79.542H53.388L53.409 79.752H53.418C53.486 79.684 53.559 79.626 53.637 79.578C53.717 79.53 53.807 79.506 53.907 79.506C54.203 79.506 54.351 79.696 54.351 80.076V81H54.105V80.109C54.105 79.973 54.083 79.874 54.039 79.812C53.995 79.75 53.925 79.719 53.829 79.719C53.755 79.719 53.688 79.738 53.628 79.776C53.57 79.814 53.504 79.87 53.43 79.944V81H53.184ZM55.2056 81.036C55.1016 81.036 55.0016 81.017 54.9056 80.979C54.8116 80.941 54.7306 80.893 54.6626 80.835L54.7856 80.67C54.8476 80.722 54.9126 80.764 54.9806 80.796C55.0486 80.828 55.1266 80.844 55.2146 80.844C55.3106 80.844 55.3826 80.822 55.4306 80.778C55.4786 80.734 55.5026 80.68 55.5026 80.616C55.5026 80.54 55.4666 80.483 55.3946 80.445C55.3246 80.405 55.2496 80.37 55.1696 80.34C55.0656 80.302 54.9666 80.254 54.8726 80.196C54.7806 80.136 54.7346 80.044 54.7346 79.92C54.7346 79.804 54.7786 79.706 54.8666 79.626C54.9546 79.546 55.0776 79.506 55.2356 79.506C55.3276 79.506 55.4116 79.522 55.4876 79.554C55.5656 79.586 55.6326 79.625 55.6886 79.671L55.5716 79.827C55.5216 79.789 55.4696 79.758 55.4156 79.734C55.3616 79.71 55.3026 79.698 55.2386 79.698C55.1466 79.698 55.0786 79.719 55.0346 79.761C54.9926 79.803 54.9716 79.852 54.9716 79.908C54.9716 79.976 55.0046 80.027 55.0706 80.061C55.1386 80.095 55.2136 80.128 55.2956 80.16C55.4016 80.2 55.5016 80.249 55.5956 80.307C55.6916 80.365 55.7396 80.463 55.7396 80.601C55.7396 80.719 55.6936 80.821 55.6016 80.907C55.5096 80.993 55.3776 81.036 55.2056 81.036ZM56.2104 81.036C56.1604 81.036 56.1174 81.019 56.0814 80.985C56.0474 80.949 56.0304 80.904 56.0304 80.85C56.0304 80.794 56.0474 80.748 56.0814 80.712C56.1174 80.676 56.1604 80.658 56.2104 80.658C56.2584 80.658 56.2994 80.676 56.3334 80.712C56.3694 80.748 56.3874 80.794 56.3874 80.85C56.3874 80.904 56.3694 80.949 56.3334 80.985C56.2994 81.019 56.2584 81.036 56.2104 81.036Z" fill="white"/>
</svg>
