<svg width="240" height="73" viewBox="0 0 240 73" fill="none" xmlns="http://www.w3.org/2000/svg">
<rect width="240" height="73" rx="36.5" fill="#68F408"/>
<path d="M34.8419 48V27.12H43.5719C45.0319 27.12 46.2919 27.39 47.3519 27.93C48.5719 28.55 49.5419 29.44 50.2619 30.6C50.9819 31.74 51.3419 33 51.3419 34.38C51.3419 35.76 50.9819 37.03 50.2619 38.19C49.5619 39.35 48.6019 40.24 47.3819 40.86C46.3419 41.4 45.0719 41.67 43.5719 41.67H40.3019V48H34.8419ZM72.6189 48H56.5689V27.12H64.6989C66.4389 27.12 67.8589 27.43 68.9589 28.05C70.0389 28.65 70.8789 29.47 71.4789 30.51C72.0789 31.55 72.3789 32.7 72.3789 33.96C72.3789 35.52 71.8989 36.92 70.9389 38.16C69.9789 39.38 68.7689 40.19 67.3089 40.59L72.6189 48ZM58.4589 28.23L66.6189 39.63C67.9589 39.35 69.0689 38.68 69.9489 37.62C70.8289 36.56 71.2689 35.34 71.2689 33.96C71.2689 32.86 70.9989 31.86 70.4589 30.96C69.9189 30.06 69.1589 29.37 68.1789 28.89C67.2989 28.45 66.1489 28.23 64.7289 28.23H58.4589ZM57.6789 28.95V39.72H65.3889L57.6789 28.95ZM57.6789 46.89H70.5189L66.1389 40.8L65.2089 40.83H57.6789V46.89ZM77.4859 35.25C77.4859 33.69 77.8759 32.24 78.6559 30.9C79.4359 29.56 80.4859 28.5 81.8059 27.72C83.1459 26.94 84.6059 26.55 86.1859 26.55C87.7659 26.55 89.2159 26.94 90.5359 27.72C91.8759 28.5 92.9359 29.56 93.7159 30.9C94.4959 32.24 94.8859 33.69 94.8859 35.25V39.87C94.8859 41.43 94.4959 42.88 93.7159 44.22C92.9359 45.56 91.8759 46.62 90.5359 47.4C89.2159 48.18 87.7659 48.57 86.1859 48.57C84.6059 48.57 83.1459 48.18 81.8059 47.4C80.4859 46.62 79.4359 45.56 78.6559 44.22C77.8759 42.88 77.4859 41.43 77.4859 39.87V35.25ZM82.9459 39.87C82.9459 40.83 83.2459 41.65 83.8459 42.33C84.4459 43.01 85.2259 43.35 86.1859 43.35C87.1259 43.35 87.8959 43.01 88.4959 42.33C89.0959 41.65 89.3959 40.83 89.3959 39.87V35.22C89.3959 34.24 89.0959 33.42 88.4959 32.76C87.8959 32.1 87.1259 31.77 86.1859 31.77C85.2259 31.77 84.4459 32.1 83.8459 32.76C83.2459 33.42 82.9459 34.24 82.9459 35.22V39.87ZM100.893 48V27.12H108.663C110.183 27.12 111.583 27.5 112.863 28.26C114.163 29.02 115.193 30.05 115.953 31.35C116.713 32.63 117.093 34.03 117.093 35.55V39.57C117.093 41.09 116.713 42.5 115.953 43.8C115.193 45.08 114.163 46.1 112.863 46.86C111.583 47.62 110.183 48 108.663 48H100.893ZM130.6 48.45C129.08 48.45 127.67 48.07 126.37 47.31C125.09 46.55 124.07 45.53 123.31 44.25C122.55 42.95 122.17 41.54 122.17 40.02V27.12H139.03V40.02C139.03 41.54 138.65 42.95 137.89 44.25C137.13 45.53 136.1 46.55 134.8 47.31C133.52 48.07 132.12 48.45 130.6 48.45ZM161.417 40.11C161.437 42.73 160.687 44.78 159.167 46.26C157.647 47.72 155.557 48.45 152.897 48.45C151.317 48.45 149.857 48.09 148.517 47.37C147.197 46.65 146.147 45.63 145.367 44.31C144.587 42.99 144.197 41.47 144.197 39.75V35.37C144.197 33.67 144.567 32.16 145.307 30.84C146.067 29.52 147.097 28.5 148.397 27.78C149.717 27.04 151.187 26.67 152.807 26.67C155.467 26.67 157.547 27.4 159.047 28.86C160.567 30.3 161.337 32.34 161.357 34.98H155.957C155.937 33.96 155.657 33.17 155.117 32.61C154.597 32.05 153.827 31.77 152.807 31.77C151.887 31.77 151.127 32.06 150.527 32.64C149.927 33.22 149.627 34.04 149.627 35.1V39.99C149.627 41.05 149.937 41.88 150.557 42.48C151.197 43.06 151.977 43.35 152.897 43.35C154.997 43.35 156.047 42.27 156.047 40.11H161.417ZM174.474 48V32.4H166.584V27.12H183.444V32.4H175.554V48H174.474ZM197.371 48.54C194.471 48.54 192.231 47.86 190.651 46.5C189.091 45.12 188.321 43.06 188.341 40.32H193.231C193.211 41.46 193.551 42.33 194.251 42.93C194.951 43.53 195.931 43.83 197.191 43.83C198.231 43.83 199.051 43.66 199.651 43.32C200.251 42.98 200.551 42.46 200.551 41.76C200.551 41.18 200.241 40.76 199.621 40.5C199.021 40.24 198.421 40.06 197.821 39.96C197.221 39.84 196.851 39.77 196.711 39.75C195.171 39.45 193.841 39.09 192.721 38.67C191.601 38.23 190.661 37.57 189.901 36.69C189.141 35.81 188.761 34.65 188.761 33.21C188.761 31.77 189.141 30.55 189.901 29.55C190.661 28.53 191.671 27.77 192.931 27.27C194.211 26.77 195.601 26.52 197.101 26.52C198.921 26.52 200.491 26.86 201.811 27.54C203.151 28.22 204.201 29.25 204.961 30.63C205.341 31.29 205.571 31.93 205.651 32.55C205.731 33.15 205.771 33.74 205.771 34.32H200.881C200.881 33.24 200.591 32.45 200.011 31.95C199.431 31.43 198.531 31.17 197.311 31.17C196.331 31.17 195.571 31.34 195.031 31.68C194.491 32.02 194.221 32.48 194.221 33.06C194.221 33.7 194.581 34.17 195.301 34.47C196.021 34.77 196.931 35.04 198.031 35.28C199.831 35.64 201.231 35.99 202.231 36.33C203.251 36.65 204.131 37.23 204.871 38.07C205.611 38.91 205.981 40.09 205.981 41.61C205.981 43.05 205.581 44.29 204.781 45.33C203.981 46.37 202.921 47.17 201.601 47.73C200.301 48.27 198.891 48.54 197.371 48.54Z" fill="#212121"/>
</svg>
